<svg xmlns="http://www.w3.org/2000/svg" version="1.1" xmlns:xlink="http://www.w3.org/1999/xlink" viewBox="0 0 200 200"><rect width="200" height="200" fill="url('#gradient')"></rect><defs><linearGradient id="gradient" gradientTransform="rotate(81 0.5 0.5)"><stop offset="0%" stop-color="#6e7476"></stop><stop offset="100%" stop-color="#6c7171"></stop></linearGradient></defs><g><g fill="#d5dce4" transform="matrix(1.7665748172996285,0,0,1.7665748172996285,26.41305170167888,113.07499710559216)" stroke="#0e5278" stroke-width="0"><path d="M4.39-10.57L4.39 0L1.09 0L1.09-10.57L4.39-10.57ZM0.90-13.29L0.90-13.29Q0.90-13.99 1.41-14.44Q1.91-14.89 2.72-14.89Q3.54-14.89 4.04-14.44Q4.55-13.99 4.55-13.29Q4.55-12.59 4.04-12.14Q3.54-11.69 2.72-11.69Q1.91-11.69 1.41-12.14Q0.90-12.59 0.90-13.29ZM9.89-15L9.89 0L6.59 0L6.59-15L9.89-15ZM15.14-15L15.14-9.43Q16.19-10.76 17.83-10.76L17.83-10.76Q19.58-10.76 20.47-9.73Q21.36-8.69 21.38-6.67L21.38-6.67L21.38 0L18.08 0L18.08-6.59Q18.08-7.43 17.73-7.83Q17.39-8.22 16.57-8.22L16.57-8.22Q15.56-8.22 15.14-7.58L15.14-7.58L15.14 0L11.85 0L11.85-15L15.14-15ZM32.45 0L29.16 0Q28.98-0.32 28.85-0.95L28.85-0.95Q27.94 0.20 26.31 0.20L26.31 0.20Q24.81 0.20 23.77-0.71Q22.72-1.61 22.72-2.98L22.72-2.98Q22.72-4.70 23.99-5.58Q25.26-6.46 27.69-6.46L27.69-6.46L28.70-6.46L28.70-7.01Q28.70-8.47 27.44-8.47L27.44-8.47Q26.27-8.47 26.27-7.31L26.27-7.31L22.98-7.31Q22.98-8.85 24.28-9.80Q25.59-10.76 27.61-10.76Q29.63-10.76 30.80-9.78Q31.97-8.79 32.00-7.07L32.00-7.07L32.00-2.39Q32.02-0.94 32.45-0.17L32.45-0.17L32.45 0ZM27.10-2.15L27.10-2.15Q27.71-2.15 28.12-2.41Q28.53-2.68 28.70-3.01L28.70-3.01L28.70-4.70L27.74-4.70Q26.03-4.70 26.03-3.15L26.03-3.15Q26.03-2.71 26.33-2.43Q26.63-2.15 27.10-2.15ZM33.85-10.57L36.93-10.57L37.04-9.33Q38.16-10.76 40.06-10.76L40.06-10.76Q42.06-10.76 42.76-9.17L42.76-9.17Q43.84-10.76 45.87-10.76L45.87-10.76Q49.08-10.76 49.17-6.88L49.17-6.88L49.17 0L45.87 0L45.87-6.67Q45.87-7.48 45.60-7.85Q45.32-8.22 44.60-8.22L44.60-8.22Q43.62-8.22 43.14-7.35L43.14-7.35L43.15-7.22L43.15 0L39.85 0L39.85-6.65Q39.85-7.48 39.59-7.85Q39.33-8.22 38.58-8.22L38.58-8.22Q37.64-8.22 37.14-7.35L37.14-7.35L37.14 0L33.85 0L33.85-10.57ZM50.63-5.36L50.63-5.36Q50.63-7.87 51.72-9.32Q52.80-10.76 54.75-10.76L54.75-10.76Q56.16-10.76 57.13-9.65L57.13-9.65L57.13-15L60.43-15L60.43 0L57.47 0L57.30-1.13Q56.29 0.20 54.73 0.20L54.73 0.20Q52.84 0.20 51.74-1.25Q50.63-2.70 50.63-5.36ZM53.94-5.76L53.93-5.16Q53.93-2.34 55.57-2.34L55.57-2.34Q56.66-2.34 57.13-3.26L57.13-3.26L57.13-7.29Q56.68-8.22 55.59-8.22L55.59-8.22Q54.06-8.22 53.94-5.76L53.94-5.76ZM67.41 0.20L67.41 0.20Q64.98 0.20 63.48-1.25Q61.97-2.71 61.97-5.03L61.97-5.03L61.97-5.30Q61.97-6.92 62.57-8.16Q63.17-9.40 64.33-10.08Q65.48-10.76 67.06-10.76L67.06-10.76Q69.29-10.76 70.58-9.38Q71.87-8.00 71.87-5.53L71.87-5.53L71.87-4.25L65.32-4.25Q65.50-3.36 66.09-2.85Q66.69-2.34 67.64-2.34L67.64-2.34Q69.20-2.34 70.08-3.44L70.08-3.44L71.58-1.66Q70.97-0.81 69.84-0.31Q68.71 0.20 67.41 0.20ZM67.04-8.22L67.04-8.22Q65.60-8.22 65.32-6.31L65.32-6.31L68.64-6.31L68.64-6.56Q68.66-7.35 68.24-7.79Q67.82-8.22 67.04-8.22ZM75.63-10.57L77.28-3.92L78.95-10.57L82.41-10.57L78.96 0L75.61 0L72.16-10.57L75.63-10.57Z"></path></g></g></svg>